Coordinates
version=1
nRows=17
nColumns=40
inDegrees=yes

Units are S.I. units (second, meters, Newtons, ...)
Angles are in degrees.

endheader
time	pelvis_tilt	pelvis_list	pelvis_rotation	pelvis_tx	pelvis_ty	pelvis_tz	hip_flexion_r	hip_adduction_r	hip_rotation_r	knee_angle_r	knee_angle_r_beta	ankle_angle_r	subtalar_angle_r	mtp_angle_r	hip_flexion_l	hip_adduction_l	hip_rotation_l	knee_angle_l	knee_angle_l_beta	ankle_angle_l	subtalar_angle_l	mtp_angle_l	lumbar_extension	lumbar_bending	lumbar_rotation	arm_flex_r	arm_add_r	arm_rot_r	elbow_flex_r	pro_sup_r	wrist_flex_r	wrist_dev_r	arm_flex_l	arm_add_l	arm_rot_l	elbow_flex_l	pro_sup_l	wrist_flex_l	wrist_dev_l
      0.50000000	      3.98601303	     -0.96563546	     -1.70512057	     -0.90097148	      0.88870755	     -1.41393529	    -11.66056954	      2.65421656	     -9.46509699	    -18.38224403	     -0.32083068	     16.10641081	      3.35199492	     -7.68122768	     23.10039999	      2.77512371	      7.29453629	    -19.42018722	     -0.33894621	      0.58785228	     -2.63471884	     -9.96150866	    -11.55092712	      1.38602605	      3.81214535	     15.25634643	    -11.87569853	     24.44946005	     23.35915052	     89.95437384	      0.00000000	      0.00000000	     -2.17407923	      6.90508372	     -8.31273945	     13.53400830	     89.95437384	      0.00000000	      0.00000000
      0.51000000	      3.81491524	     -0.96993768	     -2.27460197	     -0.88765379	      0.88640731	     -1.41410964	    -12.14862436	      2.34407742	     -9.30428656	    -18.90352708	     -0.32992879	     16.21941920	      3.93451073	     -8.65153069	     23.41887914	      3.20100552	      8.63815050	    -17.16756005	     -0.29963045	      0.33094241	     -4.61129406	     -9.92052939	    -11.47629826	      1.23062899	      4.11813193	     16.00737993	    -11.80886362	     24.06385743	     24.24960913	     89.95437384	      0.00000000	      0.00000000	     -3.11205744	      6.79422796	     -9.85858363	     12.04379648	     89.95437384	      0.00000000	      0.00000000
      0.52000000	      3.46190492	     -0.94162205	     -2.69220711	     -0.87437870	      0.88395796	     -1.41485651	    -12.37768506	      2.07046317	     -8.85999891	    -19.54462560	     -0.34111807	     16.18708625	      3.88759915	     -8.85053647	     23.96961849	      3.38646189	      9.38691316	    -15.41845796	     -0.26910286	      0.37970061	     -5.16227672	     -9.89980198	    -11.18897449	      1.11354829	      4.20894787	     16.68683822	    -11.78534111	     23.81049834	     25.17775101	     89.95437384	      0.00000000	      0.00000000	     -4.00465820	      6.51656937	    -10.46523455	     10.49498108	     89.95437384	      0.00000000	      0.00000000
      0.53000000	      3.16898822	     -0.83348730	     -3.34154881	     -0.86088419	      0.88180542	     -1.41520761	    -12.53833137	      1.63307734	     -8.25448641	    -20.39008288	     -0.35587408	     16.13923591	      3.80219288	     -9.06315612	     24.47383754	      3.61389825	     10.64982659	    -14.33881498	     -0.25025953	      0.34859069	     -5.45779250	     -9.87421660	    -10.93770496	      0.86560676	      4.50476513	     17.24537336	    -11.71350007	     23.39648131	     26.15882565	     89.95437384	      0.00000000	      0.00000000	     -4.96536921	      6.32635966	    -11.34331848	      9.17326451	     89.95437384	      0.00000000	      0.00000000
      0.54000000	      2.92019952	     -0.85817897	     -3.54335613	     -0.84667564	      0.87987010	     -1.41603048	    -12.95714474	      1.46175339	     -7.90470687	    -20.93290038	     -0.36534803	     15.88313251	      3.77194513	     -9.03798689	     24.99002571	      3.75421808	     11.10021789	    -13.97258457	     -0.24386761	      0.55693555	     -5.37520270	     -9.80195291	    -10.65264569	      0.83205355	      4.19686738	     17.77936333	    -11.49766211	     23.17662192	     26.91219819	     89.95437384	      0.00000000	      0.00000000	     -6.13141605	      6.14895597	    -11.61269715	      8.22513728	     89.95437384	      0.00000000	      0.00000000
      0.55000000	      2.62581815	     -0.58092986	     -4.59313672	     -0.83238531	      0.87824709	     -1.41567607	    -12.91061793	      0.80879266	     -6.56201679	    -22.12323230	     -0.38612324	     15.24388327	      2.99096345	     -9.78681366	     25.29368122	      3.94506109	     12.01945827	    -14.04426260	     -0.24511862	      0.74783767	     -5.56387197	    -10.02651025	    -10.24297963	      0.33015345	      5.09510640	     17.80014781	    -11.33070352	     21.80170815	     27.93601167	     89.95437384	      0.00000000	      0.00000000	     -7.00947874	      6.16224162	    -14.39969525	      7.16614518	     89.95437384	      0.00000000	      0.00000000
      0.56000000	      2.48407695	     -0.40140474	     -4.97594050	     -0.81756099	      0.87694528	     -1.41627905	    -13.21351794	      0.35386828	     -5.94648697	    -23.03430840	     -0.40202452	     14.50783558	      2.88882847	     -9.59144457	     25.45907847	      3.82662678	     11.60819379	    -14.63795026	     -0.25548043	      0.73424289	     -5.32058942	     -9.83339971	    -10.01479891	      0.02853169	      4.91378683	     18.02874117	    -11.11017118	     21.59824029	     28.78566527	     89.95437384	      0.00000000	      0.00000000	     -8.16358522	      6.06724250	    -14.46809601	      6.66494871	     89.95437384	      0.00000000	      0.00000000
      0.57000000	      2.21683927	     -0.03206959	     -5.74381122	     -0.80244974	      0.87576678	     -1.41657790	    -13.10027559	     -0.33105977	     -4.76233545	    -24.38366734	     -0.42557528	     13.49895105	      1.64269334	     -9.62543940	     25.49983538	      3.49646957	     10.78337563	    -15.48216117	     -0.27021469	      1.44479680	     -3.07023629	     -9.54071693	     -9.52084977	     -0.48981384	      5.43668696	     17.85338358	    -10.93065820	     20.63982181	     29.61902596	     89.95437384	      0.00000000	      0.00000000	     -9.04648187	      6.01870903	    -16.65638430	      5.85202052	     89.95437384	      0.00000000	      0.00000000
      0.58000000	      2.16900739	      0.30432804	     -6.08593304	     -0.78677137	      0.87499864	     -1.41740635	    -13.34959286	     -0.96420773	     -4.17490320	    -25.54386581	     -0.44582456	     12.45012095	      1.53664197	     -9.30452310	     25.39667343	      3.11741900	     10.02525749	    -16.92364064	     -0.29537325	      1.07987668	     -2.81137424	     -9.23861717	     -9.24393933	     -0.94532015	      5.26041299	     17.78033986	    -10.72552202	     20.43745716	     30.38765439	     89.95437384	      0.00000000	      0.00000000	    -10.15889906	      5.99919318	    -16.74340354	      5.77913874	     89.95437384	      0.00000000	      0.00000000
      0.59000000	      2.06296634	      0.86452227	     -6.61086607	     -0.77072092	      0.87437429	     -1.41839310	    -13.19403888	     -1.93549367	     -3.76114536	    -27.24393014	     -0.47549628	     10.84156875	      0.61642613	     -8.89826910	     25.28139897	      2.43545150	      9.99299337	    -18.33586218	     -0.32002117	     -0.58194998	     -0.08858784	     -8.31602576	     -8.84735555	     -1.59913749	      5.35769659	     17.50710521	    -10.48626939	     19.85518830	     30.97934217	     89.95437384	      0.00000000	      0.00000000	    -10.82720696	      5.85888187	    -17.06805960	      5.12891794	     89.95437384	      0.00000000	      0.00000000
      0.60000000	      1.94868894	      1.37777117	     -6.74455378	     -0.75479028	      0.87405321	     -1.41987000	    -13.00634794	     -2.70555482	     -3.52998257	    -28.89668038	     -0.50434222	      8.93662403	     -0.28792320	     -8.42962251	     25.26438386	      1.54304369	      8.77733539	    -19.58930906	     -0.34189794	     -2.80450880	      2.80956963	     -7.29727056	     -8.47248546	     -2.16361218	      5.06045036	     17.25136675	    -10.20452292	     19.38381448	     31.40369660	     89.95437384	      0.00000000	      0.00000000	    -11.50575807	      5.77277813	    -16.90144037	      4.85890010	     89.95437384	      0.00000000	      0.00000000
      0.61000000	      1.96397317	      1.95685626	     -6.85662242	     -0.73879257	      0.87427463	     -1.42152047	    -12.65296728	     -3.64578736	     -3.66171006	    -30.98817751	     -0.54084573	      6.51565089	     -0.94275172	     -7.84521563	     25.15281154	      0.75992302	      8.16139664	    -20.83964624	     -0.36372044	     -4.14473564	      2.77857683	     -6.88286065	     -8.22916386	     -2.78521050	      4.72978817	     17.01783391	     -9.93618227	     19.13768896	     31.60697173	     89.95437384	      0.00000000	      0.00000000	    -11.98406571	      5.74529484	    -16.95111287	      4.54205835	     89.95437384	      0.00000000	      0.00000000
      0.62000000	      1.96462931	      2.62195684	     -6.85681817	     -0.72271094	      0.87478743	     -1.42327137	    -12.01088497	     -4.65484534	     -4.06308667	    -33.40083561	     -0.58295455	      3.65235243	     -1.83900056	     -7.15879915	     25.01625260	     -0.07230628	      7.80297453	    -22.08063466	     -0.38537978	     -5.24068668	      2.72456399	     -6.49643411	     -7.96612547	     -3.48881575	      4.33713495	     16.67825971	     -9.66106570	     18.87785967	     31.69319251	     89.95437384	      0.00000000	      0.00000000	    -12.25072757	      5.77849541	    -17.00762544	      4.19645040	     89.95437384	      0.00000000	      0.00000000
      0.63000000	      1.85002007	      3.34406052	     -6.79745079	     -0.70648326	      0.87526957	     -1.42513031	    -10.97981096	     -5.73480878	     -4.68566352	    -36.10961355	     -0.63023165	      0.01119735	     -3.13853636	     -6.23311071	     25.01426972	     -0.87338435	      8.33524105	    -23.58384882	     -0.41161581	     -4.34972207	      3.03339378	     -6.20381054	     -7.54366480	     -4.21046493	      3.84953930	     16.27252933	     -9.33449315	     18.59999463	     31.65814509	     89.95437384	      0.00000000	      0.00000000	    -12.46180951	      5.81324033	    -16.99564995	      3.93152718	     89.95437384	      0.00000000	      0.00000000
      0.64000000	      1.37904703	      3.84747229	     -6.63786339	     -0.69107882	      0.87542468	     -1.42691400	     -9.20441950	     -6.34257337	     -4.97290638	    -39.17269395	     -0.68369249	     -4.66906897	     -6.26041675	     -4.38824496	     25.36259330	     -1.55496034	      8.38843391	    -25.07326039	     -0.43761095	     -3.25799013	      3.34444846	     -5.47316650	     -6.85420864	     -4.65557960	      3.34062058	     15.86115630	     -9.01425126	     18.31468468	     31.51413893	     89.95437384	      0.00000000	      0.00000000	    -12.44901981	      5.86648640	    -16.77185776	      3.68611810	     89.95437384	      0.00000000	      0.00000000
      0.65000000	      1.29167266	      4.20581156	     -6.47713543	     -0.67561030	      0.87627923	     -1.42864986	     -7.80609032	     -6.86851443	     -5.28734325	    -42.03430635	     -0.73363704	    -10.35273201	     -8.68782936	     -2.05616473	     25.04252227	     -2.13296694	      8.46538328	    -26.24841148	     -0.45812120	     -2.20255763	      2.40105836	     -4.93123229	     -6.59957376	     -4.95714076	      2.75800110	     15.57930930	     -8.73964847	     18.34727130	     31.16080078	     89.95437384	      0.00000000	      0.00000000	    -12.31508031	      5.93039394	    -16.82932120	      3.54183223	     89.95437384	      0.00000000	      0.00000000
      0.66000000	      1.34245711	      4.54622559	     -6.40080122	     -0.66038688	      0.87742856	     -1.43009984	     -6.39730464	     -7.32411416	     -5.21570892	    -44.86428589	     -0.78302951	    -14.99075437	    -10.76186309	      0.03180662	     24.37054407	     -2.69187000	      8.56309443	    -27.10730876	     -0.47311179	     -0.92763749	      2.08031371	     -4.46494637	     -6.53117885	     -5.28200612	      2.26038708	     15.32001069	     -8.48304850	     18.50789992	     30.69710999	     89.95437384	      0.00000000	      0.00000000	    -12.06924977	      6.10324562	    -17.08870099	      3.63075196	     89.95437384	      0.00000000	      0.00000000
